# xmcd
#
# Track frame offsets:
#	150
#	20050
#	36114
#	66115
#	85611
#	108129
#	130138
#	148599
#	161494
#	176963
#	189104
#	208461
#	222120
#	234120
#
# Disc length: 3498 seconds
#
# Revision: 0
# Processed by: cddbd v1.4PL0 Copyright (c) Steve Scherf et al.
# Submitted via: EasyCDDAExtractor 5.0.4.1
#
DISCID=bd0da80e
DTITLE=Fabrizio De Andrè - Omonimo
DYEAR=1999
DGENRE=Country
TTITLE0=Il suonatore Jones
TTITLE1=Ottocento
TTITLE2=Andrea
TTITLE3=Verranno a chiederti del nostro amore
TTITLE4=Canzone per l'estate
TTITLE5=Hotel Supramonte
TTITLE6=Don Raffaè
TTITLE7=Amore che viene amore che va
TTITLE8=Suzanne
TTITLE9=La ballate del michè
TTITLE10=Canzone del maggio
TTITLE11=La guerra di Piero
TTITLE12=Girotondo
TTITLE13=Anime Salve
EXTD=
EXTT0=
EXTT1=
EXTT2=
EXTT3=
EXTT4=
EXTT5=
EXTT6=
EXTT7=
EXTT8=
EXTT9=
EXTT10=
EXTT11=
EXTT12=
EXTT13=
PLAYORDER=
